<svg clip-rule="evenodd" fill-rule="evenodd" height="243.541" image-rendering="optimizeQuality" shape-rendering="geometricPrecision" text-rendering="geometricPrecision" viewBox="0 0 1319.86 404.97" width="793.739" xmlns="http://www.w3.org/2000/svg" xmlns:xlink="http://www.w3.org/1999/xlink"><clipPath id="e" clip-rule="nonzero"><path d="M331.62 209.07l-68.84 10.4-4.77-31.61-9.02-6.89-36.68 5.55-6.89 9.33 18.34 121.44 9.28 6.58 36.68-5.53 6.63-8.99-4.53-30.06 68.82-10.4 8.21 54.41-33.93 46.01-110.32 16.66-46.01-33.89-25.7-170.22 33.89-46.27 110.32-16.66 46.02 34.09 8.47 56.05zm890.33 139.75l-38.44-83.72-4.42 38.91 10.51 1.2-4.46 39.44-69.16-7.84 4.48-39.44 10.51 1.2 10.92-96.23-10.51-1.2 4.46-39.44 57.05 6.47 39.02 85.66 4.62-40.75-10.51-1.2 4.46-39.44 69.15 7.84-4.46 39.44-10.51-1.2-10.92 96.23 10.51 1.18-4.46 39.44zm-145.01-192.6l-2.81 39.59-8.98-.63 31.92 99.37 10.56.74-2.81 39.59-67.92-4.85 2.85-39.57 6.08.44-2.07-8.36-46.72-3.33-3.48 7.97 5.76.45-2.81 39.59-67.3-4.85 2.85-39.59 10.56.76 45.67-93.79-7.65-.55 2.83-39.59 93.49 6.61zm-65.56 90.04l22.64 1.62-9.4-28.27-13.29 26.65zm-69.5-47.98l-39.67-1.26.34-10.58-10.83-.61-3.09 96.8 10.85.34-1.28 39.68-69.81-2.23 1.26-39.67 10.58.34 3.09-96.8-10.58-.34-.36 10.83-39.67-1.26 1.62-50.52 149.16 4.75-1.62 50.52zM774.46 319.72l-69.58-.44.26-39.7 10.58.06.61-96.85-10.59-.06.26-39.68 69.6.44-.26 39.68-10.58-.06-.61 96.85 10.58.06-.26 39.7zM658.5 252.89l-50.28.95.52 27.25 10.59-.19.76 39.68-69.54 1.33-.79-39.68 10.58-.21-1.84-96.83-10.58.21-.76-39.68 109.33-2 28.57 27.68 1.02 53.04-27.49 28.54-.1-.08zm-51.04-38.73l24.35-.47 5.45-5.61-.36-18.61-5.68-5.66-24.26.45.57 29.9h-.08zM486.13 152l2.81 39.59-8.96.65 45.67 93.79 10.56-.76 2.81 39.6-67.82 4.85-2.83-39.59 6.08-.44-3.23-7.99-46.72 3.33-2.33 8.39 5.81-.42 2.81 39.59-67.3 4.85-2.8-39.63 10.56-.74 31.92-99.37-7.66.55-2.81-39.59 93.44-6.66zm-52.15 98.43l22.64-1.62-13.31-26.63z"/></clipPath><mask id="f"><path d="M375.39 88.1h1106.63v266H375.39z"/></mask><clipPath id="g" clip-rule="nonzero"><path d="M263.05 219.42l-3.75-24.82-.31-.24-.98-6.51-9.02-6.89-36.68 5.55-6.89 9.33 18.34 121.44.34.24.97 6.43 9.28 6.58 36.66-5.53 6.63-8.99-4.53-30.05 68.55-10.36 7.2 47.67-33.93 46.01-110.32 16.66-45.62-33.61-24.72-163.75 33.88-46.24 110.26-16.65 45.73 33.87 7.48 49.48-68.57 10.36z"/></clipPath><mask id="h"><path d="M134.28 125.72h215.83v266.89H134.28z"/></mask><clipPath id="i" clip-rule="nonzero"><path d="M263.05 219.42l-3.75-24.82-.31-.24-.98-6.51-9.02-6.89-36.68 5.55-6.89 9.33 18.34 121.44.34.24.97 6.43 9.28 6.58 36.66-5.53 6.63-8.99-4.53-30.05 68.55-10.36 7.2 47.67-33.93 46.01-110.32 16.66-45.62-33.61-24.72-163.75 33.88-46.24 110.26-16.65 45.73 33.87 7.48 49.48-68.57 10.36z"/></clipPath><mask id="j"><path d="M376.62 94.9h1106.02v265.85H376.62z"/></mask><clipPath id="k" clip-rule="nonzero"><path d="M331.62 209.07l-68.84 10.4-4.77-31.61-9.02-6.89-36.68 5.55-6.89 9.33 18.34 121.44 9.28 6.58 36.68-5.53 6.63-8.99-4.53-30.06 68.82-10.4 8.21 54.41-33.93 46.01-110.32 16.66-46.01-33.89-25.7-170.22 33.89-46.27 110.32-16.66 46.02 34.09 8.47 56.05zm890.33 139.75l-38.44-83.72-4.42 38.91 10.51 1.2-4.46 39.44-69.16-7.84 4.48-39.44 10.51 1.2 10.92-96.23-10.51-1.2 4.46-39.44 57.05 6.47 39.02 85.66 4.62-40.75-10.51-1.2 4.46-39.44 69.15 7.84-4.46 39.44-10.51-1.2-10.92 96.23 10.51 1.18-4.46 39.44zm-145.01-192.6l-2.81 39.59-8.98-.63 31.92 99.37 10.56.74-2.81 39.59-67.92-4.85 2.85-39.57 6.08.44-2.07-8.36-46.72-3.33-3.48 7.97 5.76.45-2.81 39.59-67.3-4.85 2.85-39.59 10.56.76 45.67-93.79-7.65-.55 2.83-39.59 93.49 6.61zm-65.56 90.04l22.64 1.62-9.4-28.27-13.29 26.65zm-69.5-47.98l-39.67-1.26.34-10.58-10.83-.61-3.09 96.8 10.85.34-1.28 39.68-69.81-2.23 1.26-39.67 10.58.34 3.09-96.8-10.58-.34-.36 10.83-39.67-1.26 1.62-50.52 149.16 4.75-1.62 50.52zM774.46 319.72l-69.58-.44.26-39.7 10.58.06.61-96.85-10.59-.06.26-39.68 69.6.44-.26 39.68-10.58-.06-.61 96.85 10.58.06-.26 39.7zM658.5 252.89l-50.28.95.52 27.25 10.59-.19.76 39.68-69.54 1.33-.79-39.68 10.58-.21-1.84-96.83-10.58.21-.76-39.68 109.33-2 28.57 27.68 1.02 53.04-27.49 28.54-.1-.08zm-51.04-38.73l24.35-.47 5.45-5.61-.36-18.61-5.68-5.66-24.26.45.57 29.9h-.08zM486.13 152l2.81 39.59-8.96.65 45.67 93.79 10.56-.76 2.81 39.6-67.82 4.85-2.83-39.59 6.08-.44-3.23-7.99-46.72 3.33-2.33 8.39 5.81-.42 2.81 39.59-67.3 4.85-2.8-39.63 10.56-.74 31.92-99.37-7.66.55-2.81-39.59 93.44-6.66zm-52.15 98.43l22.64-1.62-13.31-26.63z"/></clipPath><linearGradient id="d"><stop offset="0" stop-color="#fff"/><stop offset="1" stop-color="#fff" stop-opacity="0"/></linearGradient><linearGradient id="a" gradientUnits="userSpaceOnUse" x1="918.64" x2="919.13" xlink:href="#d" y1="185.43" y2="298.18"/><linearGradient id="b" gradientUnits="userSpaceOnUse" x1="238.68" x2="272.61" xlink:href="#d" y1="203.87" y2="386.78"/><linearGradient id="c" gradientUnits="userSpaceOnUse" x1="919.57" x2="920.07" xlink:href="#d" y1="192.19" y2="304.87"/><path d="M16.4 93.78a372.7 372.7 0 0139.17-22.72c16.17-8.09 33.25-14.85 48.76-20.93 15.26-6.32 30.94-11.8 46.78-16.21 17.37-4.66 38.21-8.59 58.47-12.27 20.26-3.69 39.94-7.15 59.15-8.93 14.28-1.12 28.8-1.76 43.18-1.76 4.41 0 8.89.13 13.23.19 18.5.26 36.76.91 49.16 3.04 8.98 1.31 17.55 4.59 25.13 9.52 6.08 3.78 11.69 7.68 12.1 14.55.4 6.87-4.4 16.62-10.09 24.9s-12.26 15.04-28.87 20.88-43.24 10.72-73.92 18.68-65.37 18.98-97.73 26.87-62.39 12.61-90.7 13.08c-1.36-.01-2.93.03-4.34.03-22.93 0-45.94-2.47-68.32-7.34-17.79-3.96-26.57-8.09-30.24-13.66-3.67-5.58-2.17-12.57-.99-16.82s2.05-5.72 10.04-11.11h.01z" fill="#0d0c0d" stroke="#211915" stroke-miterlimit="22.926" stroke-width=".92"/><path d="M64.64 369.19c22.23 4.02 44.82 6.09 67.41 6.09 5.23 0 10.65-.14 15.84-.32 5.05-.18 26.94-.7 29.82-2.05 4.4-2.88 1.36 4.29 7.02-9.62 2.59-6.37 2.2-7.45 5.3-10.33l.89-.94-7.73 1.34c.74 16.43-10.85 16.56-15.15 6.08-6.65-16.17 6.71-25.23 10.8-16.54-.8-3.65-1.19-7.37-1.19-11.1 0-.36.01-.74.01-1.1-5.98-31.57-12.45-96.1-18.89-122.9l16.59-2.33 1.39 7.99c4.67-6.06 5.79-9.9 14.17-12.34 27.15-7.92 45.59 41.79 41.25 78.07-2.73 22.98-16.88 36.6-31.79 31.81-2.98-.95-5.82-3.1-8.18-4.3l6.89 44.26c-.86 3.04-7.24 16.96-8.36 21.26 23.76-2.43 46.9-5.92 70.41-9.94 11.84-2.02 23.82-4.85 35.58-7.5 11.42-2.64 22.88-6.6 34.17-8.7-3.36-6.47-5.72-4.85-7.66-7.71.79-7.42 4.3-1.15 9.1 4.33 1.62 1.86 2.18 2.1 3.82.65-7.54-7.88-1.1-9.91-3.93-16.67-2.55-1.07-2.22 2.26-4.04 6.16-1.44-.39-.73.23-2.02-1.62.66-3.01 2.8-11.16 6.74-8.3 5.68 4.09.15 10.98 3.23 15.28 2.18 1.05 2.23-5.17 4.22-6.31l1.34 1.62c-.21 3.62-2.83 5.95-3.4 10.56 15.22-5.71 30.73-9.49 45.91-15.33 14.86-5.74 28.64-12.5 42.95-18.98 5.13-3.7 12.77-7.08 18.42-10.45a97.416 97.416 0 0017.07-12.59c-2.54-17.9-6.18-37.08-9.2-55.06l-18.48-110.72c-1.62-9.19-2.99-18.77-4.72-27.88-1.44-7.58-2.81-17.79-4.4-26.42l-22.4 14.96c-7.87 4.7-16.16 9.11-24.51 12.93-6.95 2.57-13.79 6.29-20.8 9.07-21.17 8.67-43.08 16.22-65.13 22.31-38.32 10.81-77.52 18.92-117.01 24-22.98 3.07-46.28 4.93-69.54 5.72-14.46.49-71.56-.34-86.76-6.47l-13.78-3.48 36.21 215.84c3.4 1.93 7.07 3.41 10.87 4.41 3.09 1.04 9.15 2.04 11.64 3.38v-.13z" fill="#343434"/><path d="M248.16 248.53c-4.77 0-11.55 2.47-14.65 6.47-5.03 6.47-1.96 16.87.91 19.86 4.43 4.59 10.59 1.44 13.26-3.77 2.96-5.76 2.81-12.02.49-22.56z" fill="#343434"/><path d="M248 250.05c-5.89 1.62-16.49 5.61-16.17 16.85.42 17.01 12.44 16.38 16.7 6.68 3.43-7.83 1.62-11.72-.49-23.53h-.05z" fill="#343434"/><path d="M261.7 338.57l-1.83.13c-1.34-3.1-2.85-17.79-3.7-22.77 0 .33-.01.68-.01 1.01 0 3.75.4 7.5 1.17 11.16-4.09-8.68-17.43.32-10.79 16.54 4.29 10.49 15.9 10.35 15.15-6.08z" fill="#676666"/><path d="M244.4 360.4c1.62 1.26 10.46-.52 13.03-.7 1.12-4.3 7.5-18.23 8.36-21.26l-8.18 1.07-.89.94c-3.1 2.88-2.72 3.96-5.3 10.33-5.66 13.91-2.62 6.74-7.02 9.7zM241.92 320.55c1.44 2.64 9.06 10.88 11.51 13.62l1.44-2.78c-1.26-3.59-2.81-2.65-3.98-6.05 1.94-5.95 2.99-.84 7.07-1.16.31-2.54 0-1.15.81-2.54l-2.44-2.05c-.71-.61-1.62-.94-2.56-.94-.3 0-.59.03-.88.1-.42-3.61-.65-4.37-2.3-6.36-1.41-1.71-2.75-2.91-4.43-1.62-.94.7-3.64 7.99-4.24 9.82v-.03z" fill="#676666"/><path d="M253.66 360.64l7.49-2.12c.57-4.62 3.23-6.94 3.38-10.56l-1.34-1.62c-1.99 1.13-2.04 7.36-4.22 6.32-3.14-4.32 2.38-11.21-3.23-15.3-3.95-2.85-6.08 5.29-6.76 8.3 1.31 1.92.6 1.29 2.02 1.7 1.84-3.91 1.5-7.24 4.06-6.16 2.83 6.74-3.61 8.78 3.93 16.66-1.62 1.46-2.2 1.21-3.82-.65-4.85-5.48-8.33-11.76-9.1-4.33 1.94 2.85 4.3 1.28 7.65 7.71l-.05.05z" fill="#676666"/><path d="M245.16 334.52l1 1.36c2.99-1.07 2.67-9.54 5.17-6.92 1.29 1.36.42 3.83-.11 5.13-2.23 5.47.92 5.09 1.62 4.11 0 0 2.57-8.39 4.48-2.8.73 5.13-1.81 5.58-2.34 9.96l1.31 1.62c.61-.47 6.6-8.72 2.81-14.8-2.59-4.16-2.47-.21-4.93-4.95-3.75-7.24-6.97-.81-8.59 4.42-.81 2.57-.6.18-.36 2.83l-.06.05zM250.8 297.33c-1.62.32-1.97 1.08-2.78-.78l-.79-.55c-.3-.24-.59-.51-.84-.81a44.825 44.825 0 00-2.93 6.47c-2.78 6.94 1.25 9.07 7.37 15.75.73.96 1.55 1.86 2.46 2.66l1.31-3.4c-1.94-2.36-3.23-3.96-4.54-5.3.52-3.12 2.55-4.98 2.51-8.67l-1.47-1.05c-1.25 1.08-2.22 4.67-3.4 6.82a7.267 7.267 0 01-2.44-2.86c3.23-12.02 2.39-4.38 5.55-8.3z" fill="#676666"/><path d="M421.86 304.51c-81.28 38-182.73 59.43-272.37 62.79-14.55.53-71.78.21-87.13-5.53l-20.73-5.37c2.81 16.17 1.99 21.56 10.19 28.93 15.96 14.36 55.66 18.58 74.13 19.28 83.36 3.12 178.11-14.25 256.02-44.44 18.31-7.1 71.61-29.63 81.31-56.86 2.68-7.54.16-12.34-1.13-22.56-1.21.44-27.3 18.81-40.28 23.76z" fill="#343434"/><path d="M13.6 181.38c-3.1-35.19 2.78-33.6 8.76-32.34s12.02 2.25 17.48 2.93c5.47.68 10.35 1.08 17.59 1.49 7.24.4 16.87.78 25.23.97s15.41.19 23.22 0 16.33-.66 26.13-1.39 20.88-1.75 30.73-2.85 18.63-2.28 29.63-4.01 24.27-4.09 38.5-6.95 29.37-6.47 40.06-9.02c10.69-2.56 16.87-4.29 26.05-7.07 9.19-2.78 21.2-6.63 33.88-11.22s25.97-9.94 36.98-14.73 19.74-9.04 26.31-12.53 10.95-6.24 14.89-8.78c3.95-2.54 7.41-4.85 9.9-6.47l4.75-3.15c.74-.5.74-.5 6.89 36.16 6.14 36.66 18.45 109.96 24.61 146.64l6.15 36.66-3.53 2.47c-3.54 2.49-10.59 7.44-17.9 11.92-8.36 5-17.08 9.51-25.99 13.4-11.14 5.09-25.87 11.32-37.36 15.72-11.48 4.4-19.63 7.07-29.78 10.16-10.16 3.09-22.27 6.47-35.71 9.98s-28.14 6.92-42.69 9.86-29.11 5.3-40.19 6.99c-11.08 1.68-18.79 2.7-29.92 3.9s-25.78 2.36-38.81 3.09-24.56.92-37.02.53c-12.45-.39-25.87-1.39-36.34-2.57-8.02-.84-16.08-2.17-23.97-3.88-4.76-1-9.52-2.32-14.14-3.83-2.11-.68-4.18-1.51-6.18-2.47-.95-.44-.95-.44-6.99-36.42-6.03-35.98-18.11-107.91-21.2-143.1l-.05-.08z" fill="#343434"/><path d="M19.05 151.19c11.51 1.62 18.84 4.19 32.47 5.4 58.04 5.17 124.23-.95 180.16-13.13 23.64-5.14 49.43-9.85 72.24-17.79 1.15-3.23 1.46-.89.65-4.71-.53-2-.9-4.04-1.11-6.09-.39-4.4.73-5.76 1.75-8.34 1.02-2.59 5.21-11.69 5.61-14.83-13.92 3.93-27.99 8.96-42.51 12.77-45.62 12.06-86.76 18.21-133.64 22.07.47 5.29-1.62 5.16.49 10.49 2.02-.5 1.84-1.92 2.67-4.2 1.15-3.15.99-2.85 2.96-1.71.15 3.49.55.6-.68 3.77l-3.43 8.09c-7.31-4.85-4.61-10.83-4.64-16.37-5.19 0-10.79.74-16.25.71-28.9-.13-46.9.68-77.12-5.85-7-1.52-22.36-6.47-27.02-11.79 2.39-10.35 30.73-27.38 38.39-31.5C132.66 33.74 271.1 8.63 362.92 19.37c10.45 1.21 40.2 7.03 45.93 15.48-6.61 16.27-47.64 36.64-63.07 43.18l-24.26 9.85v.22c0 1.05-.26 2.09-.75 3.02-.18.45-.66 1.46-1 2.3l-8.78 22.07c-1.33 2.9-2.49 5.91-3.44 8.95 11.04-4.27 22.9-7.55 33.96-11.59 4.53-1.62 31.32-13.26 32.91-12.94l27.26-14.97c5.42-3.14 21.14-13.26 24.14-17.92-1.62-8.89-3.09-18.24-4.59-27.2-1.89-11.32-2.7-13.81-7.78-18.94C396.18 3.42 347.81.89 328.42.25c-46.44-1.62-100 5.55-145.54 15.38-.63.13-2.98.86-3.09.87-.49.1-2.64.27-3.9.57-29.38 6.6-74.22 18.66-100.26 30.89-17.79 8.39-37.11 16.32-52.78 28.59C15.67 82.18 6.87 89.68 2.8 98.09c-3.23 6.86-3.54 8.09-1.5 20.2 1.62 9.3 3.23 18.65 4.69 27.94 3.88 2.75 8.68 2.81 12.94 4.85l.14.13z" fill="#343434"/><path d="M8.22 146.76c1.62 1.62 7.13 3.46 12 4.85 5.44 1.43 11.01 2.51 16.59 3.14 7.44 1 18.03 2.17 26.47 2.86 8.44.7 14.78.91 23.5.95 8.72.05 19.86-.11 30.01-.49 10.15-.37 19.4-.95 30.82-2.05s25.28-2.7 36.6-4.25 20.18-3.02 31.87-5.29c11.69-2.26 26.21-5.3 38.29-7.99 12.08-2.68 21.75-5 31.45-7.76 9.7-2.77 19.41-5.95 29.79-9.46s21.22-7.33 32.1-11.55 21.78-8.85 31.32-13.47 17.79-9.23 24.26-13.15c6.47-3.91 10.98-7.12 13.55-8.93 1.42-.94 2.77-2 4.01-3.16.92-.89 2.22-2.22 2.86-2.89.65-.68.65-.66-.5-7s-3.48-19.07-5.55-26.75-3.87-10.37-6.16-12.74c-2.3-2.38-5.11-4.45-5.05-.31s3.02 14.55 3.53 21.75c.5 7.2-1.41 11.45-7.23 13.99s-15.54 3.43-22.01 4.85-9.7 3.23-15.2 6-13.42 6.7-21.39 10.25c-7.97 3.56-16.06 6.86-23.48 9.61s-14.18 4.98-23.08 7.76c-8.89 2.78-19.87 6.08-32.15 9.33-12.27 3.25-25.87 6.37-40.9 9.3-15.02 2.93-31.63 5.48-45.1 7.41-13.47 1.92-23.93 3.06-32.18 3.85s-14.25 1.21-19.97 1.62c-5.72.4-11.17.53-15.49 3.12s-7.49 7.55-24.13 9.94-46.73 2.22-62.86 2.89c-16.12.68-18.26 2.18-16.59 3.83l-.02-.08z" fill="#343434"/><path d="M161.34 374.22c6.89-.11 17.32-.89 28.41-2.02s22.85-2.57 36.42-4.58 28.91-4.54 43.53-7.47 28.51-6.23 39.54-8.97c11.03-2.75 19.24-4.85 25.42-6.58s10.37-3.23 7.89-12.77c-2.47-9.54-11.58-27.23-21.67-35.27s-21.12-6.47-44.57-2.26c-23.45 4.2-59.28 10.93-85.34 16.09-26.05 5.16-42.27 8.72-50.13 14.85s-7.16 14.88-4.62 23.3a60.211 60.211 0 0010.9 20.93c3.91 4.35 7.26 4.85 14.15 4.77h.06z" fill="#343434" stroke="#343434" stroke-miterlimit="22.926" stroke-width=".92"/><path d="M40.61 356.48c.34 3.23 1.62 9.4 2.28 12.94.35 1.97.9 3.91 1.62 5.77.45 1.12 1.05 2.3 1.49 3.12s.71 1.31.99 1.73.52.79.74 1.12c.38.52.82 1 1.31 1.42a12.88 12.88 0 004.12 2.88c.6.29 1.25.43 1.91.43 1.09 0 2.14-.4 2.94-1.13 1.18-1.25 1.62-3.67 1.05-8.09-.58-5.04-1.86-9.98-3.78-14.67-1.02-2.6-3.08-4.65-5.68-5.68-1.71-.74-3.02-1.05-4.33-1.62-1.14-.61-2.33-1.15-3.54-1.62-.92-.21-1.44.19-1.12 3.46v-.08z" fill="#343434"/><path d="M238.96 115.45c13.21 1.13 35.79 4.14 57.55 13.86 21.77 9.72 42.72 26.12 59.2 44 16.48 17.89 28.4 37.19 39.07 56.44 10.67 19.24 20.1 38.23 26.2 55.71 4.57 13.46 8.03 27.33 10.31 41.36 1.41 7.96 1.41 7.96 3.83 6.16 2.43-1.8 7.29-5.35 11.55-9.06 3.89-3.33 7.46-7.03 10.62-11.04 2.76-3.23 4.54-7.19 5.11-11.4.58-4.58 0-10.46-1.47-19.91-1.47-9.44-3.57-22.4-8.7-52.96s-13.2-78.67-18.71-113.08-8.41-55.09-10.49-66.38c-2.09-11.29-3.35-13.13-5.43-13.97a8.67 8.67 0 00-2.9-.5c-1.58 0-3.13.43-4.49 1.24-2.36 1.41-4.19 4.06-7.6 7.42s-8.39 7.47-12.18 10.64a60.465 60.465 0 01-11.93 8.41c-5.6 2.99-14.21 6.76-22.25 10.3s-15.52 6.86-25.07 10.59c-9.54 3.74-21.18 7.84-32.34 11.47-11.16 3.62-21.93 6.71-35.29 10.14s-29.43 7.16-35.58 8.67c-6.15 1.5-2.25.74 10.96 1.89z" fill="#4f4e4f"/><path d="M336.31 80.64c7.6-3.44 21.96-10.14 31.49-14.94 6.12-2.98 12.07-6.37 17.79-10.06 3.22-2.06 6.36-4.34 9.33-6.76 3.24-2.52 6.35-5.23 9.29-8.08 1.2-.95 2.02-2.31 2.29-3.82.17-.72.43-1.42.74-2.09.21-.39.24-.34.26-.32s0 0 1.84-.5 5.45-1.62 7.58-1.02 2.73 2.86 3.33 6.26c.46 2.22.7 4.49.7 6.76 0 2.02-.19 4.04-.55 6.02-1.04 4.85-3.69 9.9-11.58 16.8a120.717 120.717 0 01-35.67 21.1c-14.7 5.47-31.02 7.66-39.78 7.37s-9.98-3.07-9.78-5.64c.32-2.31 1.39-4.47 3.03-6.14 1.25-1.28 2.09-1.49 9.7-4.93z" fill="#4f4e4f"/><g fill="#323232"><path d="M1115.89 287.8l6.99-61.11-10.59-1.2 8.41-73.68 84.2 9.49 8.99 19.58 2.1-18.35 103.87 11.69-8.43 73.69-10.59-1.18-7.08 61.98 10.59 1.2-8.41 73.68-84.98-9.57-8.38-18.14-1.94 16.98-103.87-11.69v-.37l-79-5.58 3.43-47.79-6.29-.44-3.41 47.77-98.22-6.94v1.76l-104.77-3.31 2.38-74.11 10.66.34 1.62-51.52-43.92-1.39-.34 52.43h10.66l-.45 74.23-104.51-.66.47-74.14h10.66l.16-26.59-33.23 34.25-29.82.57 1.28 66.93-80.86 1.54.15 1.88-102.67 7.26-3.43-47.79-6.29.45 3.43 47.77-102.14 7.23-5.3-73.97 16.17-1.15 21.18-65.51-5.19-72.51 128.45-9.07 5.3 73.95h-.73l28.25 57.67 8.36-.16-1.2-62.37-10.66.21-1.42-74.14 134.37-2.54 25.87 24.85.16-25.4 89.34.55v-1.02l184.63 5.84-2.59 80.48 3.88-7.92 5.21-72.48 128.45 9.09-5.3 73.97h-.74l20.7 64.02 6.31.44.1.05zm-160.64-62.63l-48.85-1.62-1.62 51.52 9.85.31.15-1.86 16.17 1.15 24.26-49.56.05.06z"/><path d="M481.74 161.18l2.85 39.6-9.04.63 45.99 93.79 10.62-.74 2.85 39.59-68.31 4.85-2.83-39.6 6.11-.42-3.23-8.09-47.03 3.33-2.34 8.39 5.85-.42 2.83 39.6-67.76 4.85-2.86-39.52 10.64-.76 32.13-99.37-7.71.55-2.83-39.59 94.07-6.66v-.02zm-52.51 98.43l22.87-1.62-13.41-26.65zM655.27 262.08l-50.62.95.53 27.25 10.66-.19.76 39.68-70.05 1.33-.76-39.68 10.64-.19-1.81-96.83-10.66.19-.76-39.68 109.96-2.09 28.78 27.68 1.02 53.06-27.7 28.53zm-51.38-38.73l24.52-.45 5.48-5.63-.36-18.58-5.71-5.66-24.5.47.57 29.88zM772.04 328.91l-70.07-.44.25-39.69 10.67.08.61-96.85-10.65-.07.24-39.7 70.07.44-.26 39.7-10.66-.07-.61 96.85 10.66.07zM940.59 207.47l-39.94-1.26.34-10.58-10.91-.62-3.11 96.8 10.92.36-1.28 39.67-70.3-2.23 1.28-39.67 10.66.34 3.1-96.8-10.65-.34-.34 10.85-39.95-1.26 1.62-50.52 150.18 4.75zM1076.51 165.42l-2.8 39.59-9.04-.65 32.1 99.44 10.62.74-2.85 39.6-68.29-4.85 2.85-39.59 6.11.44-2.07-8.38-47.06-3.38-3.51 7.97 5.85.42-2.85 39.59-67.76-4.85 2.83-39.59 10.62.74 45.99-93.79-7.7-.55 2.83-39.59 94.08 6.66.02.02zm-66.03 90.02l22.87 1.62-9.46-28.25zM1222.55 358l-38.71-83.71-4.43 38.9 10.59 1.2-4.51 39.44-69.62-7.84 4.5-39.44 10.59 1.19 10.98-96.23-10.58-1.18 4.5-39.44 57.44 6.47 39.3 85.64 4.64-40.75-10.58-1.2 4.5-39.44 69.61 7.84-4.49 39.44-10.59-1.19-10.98 96.23 10.59 1.2-4.51 39.44z" fill-rule="nonzero"/><path d="M772.04 339.47l-70.07-.45.25-39.69 10.67.07.61-96.85-10.65-.06.24-39.7 70.07.45-.26 39.68-10.66-.06-.61 96.85 10.66.06zM940.59 218.03l-39.94-1.27.34-10.57-10.91-.62-3.11 96.81 10.92.33-1.28 39.67-70.3-2.21 1.28-39.67 10.66.32 3.1-96.8-10.65-.32-.34 10.83-39.95-1.26 1.62-50.52 150.18 4.76zM1076.5 176.05l-2.78 39.51-9.04-.63 32.15 99.36 10.62.76-2.85 39.59-68.29-4.85 2.8-39.51 6.11.44-2.07-8.38-47.06-3.38-3.51 7.97 5.84.4-2.83 39.6-67.76-4.85 2.83-39.59 10.62.76 45.99-93.79-7.7-.55 2.83-39.59 94.08 6.73zm-66.01 89.96l22.85 1.62-9.44-28.27zM1222.55 368.56l-38.71-83.73-4.43 38.92 10.57 1.2-4.49 39.42-69.62-7.82 4.5-39.44 10.59 1.18 10.98-96.22-10.59-1.2 4.51-39.44 57.44 6.47 39.3 85.64 4.64-40.75-10.6-1.18 4.52-39.44 69.61 7.83-4.49 39.44-10.59-1.18-10.98 96.21 10.57 1.2-4.49 39.44z" fill-rule="nonzero"/></g><path d="M331.62 209.07l-68.84 10.4-4.77-31.61-9.02-6.89-36.68 5.55-6.89 9.33 18.34 121.44 9.28 6.58 36.68-5.53 6.63-8.99-4.53-30.06 68.82-10.4 8.21 54.41-33.93 46.01-110.32 16.66-46.01-33.89-25.7-170.22 33.89-46.27 110.32-16.66 46.02 34.09 8.47 56.05zm890.33 139.75l-38.44-83.72-4.42 38.91 10.51 1.2-4.46 39.44-69.16-7.84 4.48-39.44 10.51 1.2 10.92-96.23-10.51-1.2 4.46-39.44 57.05 6.47 39.02 85.66 4.62-40.75-10.51-1.2 4.46-39.44 69.15 7.84-4.46 39.44-10.51-1.2-10.92 96.23 10.51 1.18-4.46 39.44zm-145.01-192.6l-2.81 39.59-8.98-.63 31.92 99.37 10.56.74-2.81 39.59-67.92-4.85 2.85-39.57 6.08.44-2.07-8.36-46.72-3.33-3.48 7.97 5.76.45-2.81 39.59-67.3-4.85 2.85-39.59 10.56.76 45.67-93.79-7.65-.55 2.83-39.59 93.49 6.61zm-65.56 90.04l22.64 1.62-9.4-28.27-13.29 26.65zm-69.5-47.98l-39.67-1.26.34-10.58-10.83-.61-3.09 96.8 10.85.34-1.28 39.68-69.81-2.23 1.26-39.67 10.58.34 3.09-96.8-10.58-.34-.36 10.83-39.67-1.26 1.62-50.52 149.16 4.75-1.62 50.52zM774.46 319.72l-69.58-.44.26-39.7 10.58.06.61-96.85-10.59-.06.26-39.68 69.6.44-.26 39.68-10.58-.06-.61 96.85 10.58.06-.26 39.7zM658.5 252.89l-50.28.95.52 27.25 10.59-.19.76 39.68-69.54 1.33-.79-39.68 10.58-.21-1.84-96.83-10.58.21-.76-39.68 109.33-2 28.57 27.68 1.02 53.04-27.49 28.54-.1-.08zm-51.04-38.73l24.35-.47 5.45-5.61-.36-18.61-5.68-5.66-24.26.45.57 29.9h-.08zM486.13 152l2.81 39.59-8.96.65 45.67 93.79 10.56-.76 2.81 39.6-67.82 4.85-2.83-39.59 6.08-.44-3.23-7.99-46.72 3.33-2.33 8.39 5.81-.42 2.81 39.59-67.3 4.85-2.8-39.63 10.56-.74 31.92-99.37-7.66.55-2.81-39.59 93.44-6.66zm-52.15 98.43l22.64-1.62-13.31-26.63z" fill="#ff9800" fill-rule="nonzero"/><g clip-path="url(#e)"><path d="M513.38 179.55l-69.04 9.01-4.13-31.7-8.88-7.07-36.78 4.81-7.08 9.19 15.89 121.79 9.15 6.77 36.78-4.79 6.81-8.86-3.92-30.15 69.02-9.01 7.12 54.57-34.85 45.32-110.63 14.43-7.21-5.54V99.44l85.08-11.1 45.33 35.01 7.34 56.21zm887.34 157.63l-36.75-84.47-5.2 38.81 10.48 1.41-5.26 39.34-68.99-9.23 5.27-39.34 10.49 1.41 12.85-96-10.48-1.41 5.26-39.34 56.91 7.61 37.29 86.43 5.44-40.65-10.48-1.41 5.26-39.34 68.98 9.23-5.26 39.34-10.48-1.41-12.85 96 10.48 1.39-5.25 39.34-57.7-7.71zm-141.1-195.48l-3.61 39.52-8.96-.81 29.92 99.99 10.54.96-3.61 39.52-67.81-6.22 3.64-39.5 6.07.56-1.9-8.4-46.64-4.27-3.64 7.9 5.75.57-3.61 39.52-67.19-6.2 3.64-39.52 10.54.97 47.54-92.85-7.64-.7 3.63-39.52 93.33 8.49zm-67.36 88.7l22.6 2.07-8.82-28.45-13.83 26.38zm-68.52-49.37l-39.63-2.06.55-10.57-10.82-.83-5.04 96.72 10.84.56-2.08 39.65-69.75-3.64 2.06-39.63 10.57.55 5.03-96.72-10.57-.55-.57 10.83-39.63-2.06 2.63-50.48 149.04 7.75zM953.91 299.08l-69.56-1.84 1.06-39.69 10.57.28 2.56-96.82-10.59-.28 1.06-39.67 69.58 1.84-1.06 39.67-10.57-.28-2.56 96.82 10.57.28zm-114.59-69.15l-50.28-.06-.03 27.25 10.59.02-.04 39.69-69.55-.07.01-39.69h10.58l.1-96.85h-10.58l.04-39.69 109.35.19 28.01 28.25-.05 53.05L839.41 230l-.1-.08zm-50.25-39.75l24.36.02 5.56-5.5.02-18.62-5.56-5.77-24.26-.04-.04 29.91zm-120.06-64.59l2.02 39.64-8.97.47 43.77 94.69 10.57-.55 2.02 39.65-67.91 3.49-2.03-39.64 6.09-.31-3.07-8.05-46.78 2.39-2.5 8.34 5.81-.3 2.02 39.64-67.39 3.5-2-39.68 10.57-.53 33.91-98.71-7.67.4-2.02-39.64 93.55-4.78zm-54.12 97.36l22.67-1.16-12.77-26.9z" fill="#ffb515" fill-rule="nonzero" mask="url(#f)"/><g clip-path="url(#g)"><path d="M134.28 125.72h215.83V392.6H134.28z" fill="#ffbf15" fill-rule="nonzero" mask="url(#h)"/></g><g clip-path="url(#i)"><path d="M514.54 186.31l-69 9.01-4.13-31.69-8.88-7.07-36.76 4.81-7.07 9.19 15.88 121.72 9.14 6.76 36.76-4.79 6.81-8.85-3.92-30.13 68.98-9.01 7.11 54.54-34.83 45.29-110.57 14.43-7.21-5.54V106.24l85.03-11.09 45.3 34.99 7.34 56.18zm886.85 157.54l-36.73-84.43-5.19 38.79 10.48 1.41-5.25 39.32-68.95-9.23 5.27-39.32 10.48 1.41 12.84-95.94-10.48-1.41 5.25-39.32 56.88 7.61 37.27 86.38 5.44-40.63-10.48-1.41 5.25-39.32 68.94 9.23-5.25 39.32-10.48-1.41-12.84 95.94 10.48 1.39-5.25 39.32-57.67-7.71zm-141.03-195.37l-3.61 39.5-8.96-.81 29.9 99.94 10.54.96-3.61 39.5-67.77-6.21 3.64-39.48 6.07.56-1.9-8.4-46.62-4.27-3.63 7.9 5.74.57-3.61 39.5-67.16-6.2 3.64-39.5 10.54.97 47.52-92.8-7.63-.7 3.62-39.5 93.28 8.49zm-67.32 88.66l22.59 2.07-8.82-28.43-13.82 26.36zm-68.49-49.34l-39.61-2.06.55-10.56-10.81-.83-5.03 96.67 10.84.56-2.07 39.63-69.71-3.63 2.06-39.61 10.56.55 5.03-96.67-10.56-.55-.57 10.82-39.61-2.06 2.63-50.45 148.95 7.75-2.63 50.45zM954.81 305.79l-69.52-1.84 1.06-39.66 10.57.28 2.56-96.76-10.58-.28 1.06-39.65 69.54 1.84-1.06 39.65-10.57-.28-2.56 96.76 10.57.28-1.06 39.66zm-114.53-69.12l-50.26-.06-.03 27.24 10.59.02-.04 39.67-69.51-.07.01-39.67h10.57l.1-96.8h-10.57l.04-39.67 109.29.19 28 28.24-.05 53.02-28.04 27.97zm-50.22-39.73l24.34.02 5.56-5.5.02-18.61-5.56-5.77-24.25-.04-.04 29.89h-.08zm-119.99-64.55l2.02 39.61-8.97.47 43.75 94.64 10.57-.55 2.02 39.63-67.87 3.48-2.03-39.61 6.08-.31-3.07-8.05-46.75 2.39-2.5 8.34 5.81-.3 2.02 39.61-67.35 3.49-2-39.66 10.57-.53 33.9-98.65-7.67.39-2.02-39.61 93.5-4.78zm-54.09 97.31l22.66-1.16-12.76-26.88-9.89 28.04z" fill="#ffb515" fill-rule="nonzero" mask="url(#j)"/></g><g clip-path="url(#k)"><path d="M332.88 215.81l-68.8 10.39-4.77-31.6-9.02-6.88-36.66 5.54-6.88 9.33 18.33 121.37 9.27 6.58 36.66-5.53 6.63-8.98-4.53-30.05 68.79-10.39 8.21 54.38-33.91 45.99-110.26 16.64-45.98-33.87-25.68-170.13 33.87-46.24 110.26-16.64 46 34.07z" fill="none"/></g></g><path d="M331.62 209.07l-68.84 10.4-4.77-31.61-9.02-6.89-36.68 5.55-6.89 9.33 18.34 121.44 9.28 6.58 36.68-5.53 6.63-8.99-4.53-30.06 68.82-10.4 8.21 54.41-33.93 46.01-110.32 16.66-46.01-33.89-25.7-170.22 33.89-46.27 110.32-16.66 46.02 34.09 8.47 56.05zm890.33 139.75l-38.44-83.72-4.42 38.91 10.51 1.2-4.46 39.44-69.16-7.84 4.48-39.44 10.51 1.2 10.92-96.23-10.51-1.2 4.46-39.44 57.05 6.47 39.02 85.66 4.62-40.75-10.51-1.2 4.46-39.44 69.15 7.84-4.46 39.44-10.51-1.2-10.92 96.23 10.51 1.18-4.46 39.44zm-145.01-192.6l-2.81 39.59-8.98-.63 31.92 99.37 10.56.74-2.81 39.59-67.92-4.85 2.85-39.57 6.08.44-2.07-8.36-46.72-3.33-3.48 7.97 5.76.45-2.81 39.59-67.3-4.85 2.85-39.59 10.56.76 45.67-93.79-7.65-.55 2.83-39.59 93.49 6.61zm-65.56 90.04l22.64 1.62-9.4-28.27-13.29 26.65zm-69.5-47.98l-39.67-1.26.34-10.58-10.83-.61-3.09 96.8 10.85.34-1.28 39.68-69.81-2.23 1.26-39.67 10.58.34 3.09-96.8-10.58-.34-.36 10.83-39.67-1.26 1.62-50.52 149.16 4.75-1.62 50.52zM774.46 319.72l-69.58-.44.26-39.7 10.58.06.61-96.85-10.59-.06.26-39.68 69.6.44-.26 39.68-10.58-.06-.61 96.85 10.58.06-.26 39.7zM658.5 252.89l-50.28.95.52 27.25 10.59-.19.76 39.68-69.54 1.33-.79-39.68 10.58-.21-1.84-96.83-10.58.21-.76-39.68 109.33-2 28.57 27.68 1.02 53.04-27.49 28.54-.1-.08zm-51.04-38.73l24.35-.47 5.45-5.61-.36-18.61-5.68-5.66-24.26.45.57 29.9h-.08zM486.13 152l2.81 39.59-8.96.65 45.67 93.79 10.56-.76 2.81 39.6-67.82 4.85-2.83-39.59 6.08-.44-3.23-7.99-46.72 3.33-2.33 8.39 5.81-.42 2.81 39.59-67.3 4.85-2.8-39.63 10.56-.74 31.92-99.37-7.66.55-2.81-39.59 93.44-6.66zm-52.15 98.43l22.64-1.62-13.31-26.63z" fill="none"/><path d="M1042.4 75.22h66.24l-48.89 67.03h-46.05l-4.67-15.44z" fill="#323232" fill-rule="nonzero"/><path d="M1045.01 88.94h44.54l-32.88 45.08h-33.27l-2.08-8.47z" fill="#ffb414" fill-rule="nonzero"/></svg>