<svg xmlns="http://www.w3.org/2000/svg" fill="none" viewBox="0 0 24 20" height="20" width="24">
<path fill="#4CB050" d="M21.316 3.3791C19.556 2.89826 15 1.6541 15 1.6666C15 2.32964 14.6839 2.96552 14.1213 3.43436C13.5587 3.90321 12.7957 4.1666 12 4.1666C11.2044 4.1666 10.4413 3.90321 9.87869 3.43436C9.31608 2.96552 9.00001 2.32964 9.00001 1.6666C9.00001 1.6541 4.44401 2.89826 2.68301 3.3791C2.48349 3.4336 2.30987 3.53945 2.18714 3.68141C2.0644 3.82337 1.99888 3.99413 2.00001 4.1691V7.26576C2.00006 7.39234 2.0347 7.51725 2.10132 7.63101C2.16794 7.74477 2.26478 7.84439 2.38449 7.9223C2.50421 8.00021 2.64365 8.05438 2.79223 8.08068C2.94081 8.10698 3.09463 8.10473 3.24201 8.0741L6.00001 7.49993V17.4999C6.00001 17.7209 6.10537 17.9329 6.29291 18.0892C6.48044 18.2455 6.7348 18.3333 7.00001 18.3333H17C17.2652 18.3333 17.5196 18.2455 17.7071 18.0892C17.8947 17.9329 18 17.7209 18 17.4999V7.49993L20.758 8.0741C20.9054 8.10473 21.0592 8.10698 21.2078 8.08068C21.3564 8.05438 21.4958 8.00021 21.6155 7.9223C21.7352 7.84439 21.8321 7.74477 21.8987 7.63101C21.9653 7.51725 22 7.39234 22 7.26576V4.1691C22.0011 3.99403 21.9354 3.82319 21.8125 3.68122C21.6896 3.53924 21.5157 3.43345 21.316 3.3791Z"></path>
</svg>

