<svg xmlns="http://www.w3.org/2000/svg" fill="none" viewBox="0 0 24 24" height="24" width="24">
<path fill="#4CB050" d="M14.3421 7.40408C15.8802 7.40408 17.1271 6.13526 17.1271 4.57008C17.1271 3.00491 15.8802 1.73608 14.3421 1.73608C12.804 1.73608 11.5571 3.00491 11.5571 4.57008C11.5571 6.13526 12.804 7.40408 14.3421 7.40408Z"></path>
<path fill="#4CB050" d="M19.1619 22.212C20.4802 22.212 21.5489 21.1433 21.5489 19.825C21.5489 18.5067 20.4802 17.438 19.1619 17.438C17.8436 17.438 16.7749 18.5067 16.7749 19.825C16.7749 21.1433 17.8436 22.212 19.1619 22.212Z"></path>
<path fill="#4CB050" d="M4.02103 18.7369C4.02103 18.7369 2.60303 18.5769 2.60303 17.4189C2.60303 16.2599 4.02103 16.1009 4.02103 16.1009C4.02103 16.1009 6.30003 16.1659 6.85503 15.4139C7.41003 14.6619 8.81103 13.3229 9.40803 10.4669C9.52803 10.0279 5.43703 11.0639 5.43703 11.0639C5.43703 11.0639 4.21703 11.1639 4.11903 9.74594C4.02103 8.32794 5.35603 8.32794 5.35603 8.32794C5.35603 8.32794 8.81003 7.18594 11.106 7.58794C13.402 7.98994 15.573 9.10894 16.175 10.4669C16.247 10.5409 16.39 11.3419 19.611 11.0639C19.826 11.0839 21.023 11.1419 20.929 12.3829C20.833 13.6239 19.611 13.7019 19.611 13.7019C19.611 13.7019 16.271 14.7379 13.689 12.3829L12.623 13.7019C12.623 13.7019 15.719 16.0369 15.26 21.0839C15.22 21.4009 15.36 22.1109 13.942 22.4029C12.525 22.6929 12.547 21.0839 12.547 21.0839C12.547 21.0839 13.006 17.0199 11.108 15.9409C11.107 15.9399 8.82103 18.6179 4.02103 18.7369Z"></path>
</svg>
